<?xml version="1.0" encoding="UTF-8" standalone="no"?>
<svg
   viewBox="0 0 980 280"
   role="img"
   aria-label="好芽儿品牌精简标志"
   version="1.1"
   id="svg38"
   xmlns="http://www.w3.org/2000/svg"
   xmlns:svg="http://www.w3.org/2000/svg">
  <defs
     id="defs19">
    <linearGradient
       id="pink"
       x1="0"
       y1="0"
       x2="1"
       y2="1">
      <stop
         offset="0"
         stop-color="#ff9bb3"
         id="stop1" />
      <stop
         offset="1"
         stop-color="#ef7f9b"
         id="stop2" />
    </linearGradient>
    <linearGradient
       id="blue"
       x1="0"
       y1="0"
       x2="1"
       y2="1">
      <stop
         offset="0"
         stop-color="#87c9f3"
         id="stop3" />
      <stop
         offset="1"
         stop-color="#57a8df"
         id="stop4" />
    </linearGradient>
    <linearGradient
       id="green"
       x1="0"
       y1="0"
       x2="1"
       y2="1">
      <stop
         offset="0"
         stop-color="#7dd28b"
         id="stop5" />
      <stop
         offset="1"
         stop-color="#4fc49c"
         id="stop6" />
    </linearGradient>
    <radialGradient
       id="skin"
       cx="48%"
       cy="36%"
       r="70%">
      <stop
         offset="0"
         stop-color="#fff0e5"
         id="stop7" />
      <stop
         offset="1"
         stop-color="#ffd2b4"
         id="stop8" />
    </radialGradient>
    <linearGradient
       id="hair"
       x1="0"
       y1="0"
       x2="1"
       y2="1">
      <stop
         offset="0"
         stop-color="#d39567"
         id="stop9" />
      <stop
         offset="1"
         stop-color="#a9663f"
         id="stop10" />
    </linearGradient>
    <linearGradient
       id="yellow"
       x1="0"
       y1="0"
       x2="0"
       y2="1">
      <stop
         offset="0"
         stop-color="#ffd872"
         id="stop11" />
      <stop
         offset="1"
         stop-color="#f8c443"
         id="stop12" />
    </linearGradient>
    <linearGradient
       id="mouth"
       x1="0"
       y1="0"
       x2="0"
       y2="1">
      <stop
         offset="0"
         stop-color="#ff93a7"
         id="stop13" />
      <stop
         offset="1"
         stop-color="#ef6e87"
         id="stop14" />
    </linearGradient>
    <linearGradient
       id="brandGreen"
       x1="0"
       y1="0"
       x2="1"
       y2="1">
      <stop
         offset="0"
         stop-color="#78D08C"
         id="stop15" />
      <stop
         offset="1"
         stop-color="#45B987"
         id="stop16" />
    </linearGradient>
    <linearGradient
       id="brandAccent"
       x1="0"
       y1="0"
       x2="1"
       y2="0">
      <stop
         offset="0"
         stop-color="#F78FA7"
         id="stop17" />
      <stop
         offset="0.5"
         stop-color="#65C98A"
         id="stop18" />
      <stop
         offset="1"
         stop-color="#67B6EA"
         id="stop19" />
    </linearGradient>
  </defs>
  <g
     transform="translate(12 12) scale(0.25)"
     id="g34">
    <!-- upper apple-heart arcs -->
    <path
       d="M501 337 C454 274 393 250 326 267 C238 289 191 367 202 454 C205 481 214 507 229 529 C233 536 241 533 239 525 C224 454 245 389 300 350 C353 312 430 314 493 348 C505 354 510 348 501 337 Z"
       fill="url(#pink)"
       id="path19" />
    <path
       d="M523 337 C570 274 631 250 698 267 C786 289 833 367 822 454 C819 481 810 507 795 529 C791 536 783 533 785 525 C800 454 779 389 724 350 C671 312 594 314 531 348 C519 354 514 348 523 337 Z"
       fill="url(#blue)"
       id="path20" />
    <!-- hands / lower heart -->
    <path
       d="M219 516 C198 505 184 521 188 548 C208 679 303 789 477 837 C491 841 501 837 501 823 C500 752 478 697 437 656 C405 624 353 580 316 567 C297 560 283 574 292 592 C307 622 331 649 364 671 C371 676 374 686 367 691 C361 695 354 692 348 688 C304 658 267 619 245 574 C240 564 226 526 219 516 Z"
       fill="url(#pink)"
       id="path21" />
    <path
       d="M805 516 C826 505 840 521 836 548 C816 679 721 789 547 837 C533 841 523 837 523 823 C524 752 546 697 587 656 C619 624 671 580 708 567 C727 560 741 574 732 592 C717 622 693 649 660 671 C653 676 650 686 657 691 C663 695 670 692 676 688 C720 658 757 619 779 574 C784 564 798 526 805 516 Z"
       fill="url(#blue)"
       id="path22" />
    <!-- leaves and stem -->
    <path
       d="M512 337 C510 295 516 252 543 218"
       fill="none"
       stroke="url(#green)"
       stroke-width="12"
       stroke-linecap="round"
       id="path23" />
    <path
       d="M511 337 C510 296 501 257 478 234"
       fill="none"
       stroke="url(#green)"
       stroke-width="10"
       stroke-linecap="round"
       id="path24" />
    <path
       d="M543 218 C562 162 617 127 675 134 C681 135 684 140 683 147 C677 210 638 250 571 251 C557 251 548 246 543 238 C540 233 540 226 543 218 Z"
       fill="url(#green)"
       id="path25" />
    <path
       d="M548 229 C577 190 611 167 649 152"
       fill="none"
       stroke="#ecfff5"
       stroke-width="7"
       stroke-linecap="round"
       opacity=".9"
       id="path26" />
    <path
       d="M478 234 C456 193 420 174 381 181 C376 182 373 186 374 191 C380 230 408 252 450 250 C463 249 473 244 478 234 Z"
       fill="url(#green)"
       id="path27" />
    <!-- yellow wrap/body -->
    <path
       d="M402 615 C441 592 474 582 512 582 C550 582 583 592 622 615 C590 635 557 666 537 710 C525 736 517 762 512 783 C507 762 499 736 487 710 C467 666 434 635 402 615 Z"
       fill="url(#yellow)"
       id="path28" />
    <!-- ears -->
    <ellipse
       cx="363"
       cy="535"
       rx="30"
       ry="37"
       fill="#ffc9a5"
       id="ellipse28" />
    <ellipse
       cx="661"
       cy="535"
       rx="30"
       ry="37"
       fill="#ffc9a5"
       id="ellipse29" />
    <!-- face -->
    <ellipse
       cx="512"
       cy="515"
       rx="143"
       ry="142"
       fill="url(#skin)"
       id="ellipse30" />
    <!-- hair -->
    <path
       d="M370 507 C365 423 423 359 510 359 C594 359 656 420 655 500 C648 449 625 408 588 385 C596 407 608 420 626 428 C607 442 574 436 552 413 C557 431 570 445 586 452 C557 465 518 448 493 416 C495 439 510 457 530 469 C502 482 459 460 437 428 C409 447 385 473 370 507 Z"
       fill="url(#hair)"
       id="path30" />
    <!-- eyes -->
    <path
       d="M430 520 C438 505 454 504 464 517"
       fill="none"
       stroke="#7a4a2c"
       stroke-width="9"
       stroke-linecap="round"
       id="path31" />
    <path
       d="M560 517 C570 504 586 505 594 520"
       fill="none"
       stroke="#7a4a2c"
       stroke-width="9"
       stroke-linecap="round"
       id="path32" />
    <!-- cheeks -->
    <ellipse
       cx="405"
       cy="555"
       rx="25"
       ry="22"
       fill="#f8a6a8"
       opacity=".8"
       id="ellipse32" />
    <ellipse
       cx="619"
       cy="555"
       rx="25"
       ry="22"
       fill="#f8a6a8"
       opacity=".8"
       id="ellipse33" />
    <!-- mouth -->
    <path
       d="M477 541 C489 538 501 537 512 537 C523 537 535 538 547 541 C547 566 533 579 512 579 C491 579 477 566 477 541 Z"
       fill="url(#mouth)"
       id="path33" />
    <!-- heart on bib -->
    <path
       d="M512 700 C505 690 487 689 481 702 C474 717 492 730 512 745 C532 730 550 717 543 702 C537 689 519 690 512 700 Z"
       fill="#fff"
       id="path34" />
  </g>
  <g
     id="g38">
    <path
       d="m 339.62109,144.59961 q -0.94336,0.94336 -1.75195,2.15625 -4.17773,4.98633 -11.45508,9.97266 -1.75195,1.21289 -4.17773,2.56054 -2.15625,1.34766 -4.3125,2.69531 -1.75196,1.2129 -0.26953,1.61719 10.91601,0.8086 26.41406,-14.41992 0.13476,-0.13477 0.4043,-0.4043 4.17773,3.63868 9.29882,9.16407 2.15625,2.02148 3.36914,2.15625 1.2129,0 2.02149,-1.34766 0.94336,-1.34766 0.4043,-5.66016 -0.94336,-4.85156 -10.91602,-10.37695 6.06445,-10.10742 8.08594,-18.59766 3.77344,-13.88085 5.66015,-16.8457 1.34766,-2.15625 -0.67382,-3.63867 -5.66016,-5.25586 -9.56836,-4.312501 -1.75196,0.539063 -1.21289,2.560551 1.21289,2.56054 1.21289,5.79492 -6.19922,0.80859 -12.66797,2.02148 3.23437,-10.242185 5.92969,-20.484373 1.34765,-6.199218 3.9082,-9.568359 1.75195,-2.964844 0.94336,-4.716797 -1.75196,-2.560547 -8.08594,-6.333984 -2.56055,-1.751953 -4.98633,-0.539063 -1.75195,0.94336 -0.40429,3.09961 4.04296,6.064453 -3.50391,39.351566 -8.625,0.94336 -17.78906,2.42578 -2.83008,0.40429 -7.27735,-0.4043 -1.75195,0 -2.15625,1.21289 -0.53906,1.61719 0.53907,2.83008 2.56054,2.56055 6.33398,5.52539 1.34766,0.53906 2.96484,-0.26953 9.70313,-4.58203 15.90235,-5.39063 -2.42578,9.29883 -5.52539,14.28516 -1.34766,2.96484 1.48242,5.39062 6.46875,3.77344 11.85937,8.49024 z m 11.85938,-29.91797 q -0.94336,10.64649 -8.49024,24.93164 -3.63867,-2.15625 -8.2207,-4.58203 -2.83008,-1.34766 -2.42578,-4.17773 2.83008,-7.81641 5.52539,-15.90235 5.25586,-1.34765 10.91602,-2.83008 1.34765,-0.53906 3.09961,-0.94336 -0.13477,1.61719 -0.4043,3.50391 z m 46.35937,8.625 q 7.68164,-0.80859 29.78321,-0.80859 2.56054,-0.13477 3.23437,-1.21289 0.8086,-1.34766 -1.48242,-3.23438 -6.87305,-4.98633 -15.09375,-3.23437 -7.41211,1.21289 -17.6543,3.23437 -2.02148,-9.0293 -6.19922,-12.26367 15.76758,-15.363282 20.34961,-17.115235 2.83008,-0.943359 1.75196,-3.234375 -0.53907,-2.15625 -10.10743,-7.142578 -2.83007,-1.347656 -5.92968,0 -7.41211,2.964844 -19.00196,6.603515 -2.96484,0.94336 -10.37695,0.94336 -3.36914,0 -2.15625,2.830078 1.21289,1.751953 3.9082,3.369141 4.44727,2.425781 9.0293,-0.539063 2.56055,-1.212891 15.22852,-6.603516 2.02148,-0.808593 3.77343,0.404297 1.75196,1.212891 0.94336,3.234375 -4.44726,7.277344 -9.56836,15.902341 -0.94336,-0.53906 -2.02148,-0.94336 -2.96484,-1.21289 -4.3125,-0.26953 -1.75195,0.94336 0,2.83008 4.98633,3.77344 6.06445,10.10742 0.4043,1.34766 0.8086,3.09961 -13.07227,1.61719 -27.89649,3.77344 -2.83008,0.13477 -0.67383,2.42578 1.75196,1.75195 4.17774,2.42578 2.56055,0.8086 4.85156,0.13477 9.70313,-2.56055 20.75391,-3.77344 4.44726,24.25781 -1.34766,37.86914 -2.02148,3.63867 -6.87305,2.69531 -4.17773,-0.80859 -7.95117,-1.48242 -1.61719,-0.4043 -0.80859,1.21289 0.53906,0.94336 2.96484,2.69531 5.39063,4.58204 7.27735,8.08594 1.34765,2.56055 3.63867,2.15625 2.02148,-0.13476 5.66015,-3.77344 11.85938,-12.1289 5.25586,-50.40234 z"
       id="text34"
       style="font-weight:500;font-size:138px;font-family:'AR PL KaitiM GB', KaiTi, STKaiti, serif;fill:#4b535e"
       aria-label="好" />
    <path
       d="m 525.44141,82.472656 q 12.66796,-0.943359 26.27929,-0.134765 2.15625,0.134765 2.83008,-1.078125 0.80859,-1.617188 -1.07812,-3.638672 -6.60352,-6.064453 -17.92383,-2.964844 -3.63867,0.404297 -7.00781,1.212891 0,-0.134766 0.13476,-0.134766 1.34766,-2.964844 3.9082,-7.007813 2.02149,-1.751953 0.67383,-3.36914 -1.61719,-2.15625 -6.06445,-4.851563 -2.15625,-1.347656 -4.58203,-0.269531 -1.34766,0.808594 -0.4043,2.291016 1.21289,3.638672 -1.48242,14.554687 -11.32031,1.347656 -23.85352,3.09961 Q 496.4668,76.003906 496.4668,72.5 q 0.13476,-2.560547 -2.56055,-3.369141 -4.98633,-2.830078 -8.2207,-1.617187 -2.56055,1.21289 -0.4043,3.773437 3.63867,4.042969 5.12109,9.56836 -10.91601,0.943359 -22.37109,2.15625 -4.04297,0.404297 -1.21289,2.560547 6.87305,4.042968 14.95898,2.15625 4.85157,-1.212891 9.70313,-2.021485 1.21289,6.199219 3.36914,8.355469 1.75195,1.347656 2.42578,-0.134766 0.53906,-2.021484 -0.13477,-9.029297 4.17774,-1.347656 21.9668,-2.15625 -2.96484,7.681641 -2.69531,10.242188 0.13476,2.021484 2.29101,0.539062 1.61719,-1.21289 6.73829,-11.050781 z M 505.76562,128.5625 q -7.27734,18.59766 -43.79882,40.96875 -2.56055,1.61719 -0.26953,2.02148 4.85156,0.4043 18.19335,-6.73828 10.10743,-6.46875 19.81055,-16.57617 1.61719,-2.02148 11.18555,-14.41992 0,13.47656 0,33.15234 0,4.98633 -1.48242,7.00782 -1.75196,0.94335 -5.92969,0 -3.36914,-0.53907 -7.41211,-1.34766 -1.61719,-0.13477 -1.48242,0.67383 0.13476,0.94336 1.61719,2.15625 9.43359,6.19922 15.36328,11.32031 1.75195,1.21289 3.5039,-1.07813 4.98633,-8.08593 4.17774,-17.78906 -1.21289,-27.89648 -0.94336,-41.10351 13.07226,-1.34766 29.51367,-0.4043 3.36914,0.53906 4.7168,-0.4043 0.94336,-0.94336 0.13476,-2.69531 -0.94336,-1.75195 -6.46875,-4.98633 -3.23437,-1.75195 -13.88086,0.4043 -3.36914,0.13477 -13.74609,1.88672 0,-4.98633 0.67383,-9.70313 0.80859,-3.63867 0,-4.98632 -0.13477,-0.4043 -0.67383,-0.53907 17.78906,-3.23437 18.59766,-3.9082 1.34765,-0.94336 0.67382,-2.021485 -0.80859,-1.617188 -4.58203,-2.830078 -3.77344,-0.94336 -7.8164,0.404297 -7.00782,2.021484 -14.28516,3.773436 -1.61719,-0.13476 -2.02148,0.26953 -8.22071,1.21289 -17.51954,1.75196 -4.85156,0.53906 -1.48242,2.96484 4.85156,2.96484 17.25,1.21289 1.21289,-0.13477 2.56055,-0.26953 0.80859,2.42578 0.94336,15.22851 -11.85938,1.75196 -23.44922,4.98633 -2.15625,0.94336 -2.69531,0.13477 -0.53907,-0.53906 -0.13477,-1.88672 2.15625,-8.2207 3.23438,-10.37695 1.21289,-2.02149 -0.4043,-3.63868 -2.42578,-3.36914 -6.33398,-5.25585 -1.75196,-0.8086 -3.09961,0.13476 -0.8086,0.80859 0.26953,3.09961 2.02148,4.04297 1.21289,9.43359 -1.75196,6.60352 -4.85156,9.29883 -1.75196,2.02149 -1.2129,3.63867 0.94336,2.96485 3.36915,5.39063 1.61718,1.61719 4.17773,-0.13477 8.2207,-5.66015 24.79687,-8.2207 z"
       id="text35"
       style="font-weight:500;font-size:138px;font-family:'AR PL KaitiM GB', KaiTi, STKaiti, serif;fill:url(#brandGreen)"
       aria-label="芽" />
    <path
       d="m 621.77734,90.154297 q 4.04297,8.085937 0.13477,37.734373 -1.61719,7.68164 -5.66016,16.8457 -4.44726,9.29883 -16.57617,20.48438 -2.15625,1.75195 -2.83008,2.83008 -0.40429,1.21289 1.48242,1.21289 5.66016,0 16.44141,-10.10742 12.9375,-13.3418 17.25,-43.25977 1.21289,-10.51172 2.56055,-21.023436 0.94336,-3.369141 -2.15625,-4.986328 -7.41211,-4.042969 -9.97266,-3.773438 -2.96484,0.539063 -0.67383,4.042969 z m 90.15821,74.525393 q -3.36914,-8.08594 -5.39063,-21.9668 -0.4043,-2.42578 -1.21289,-3.36914 -1.34766,-0.94336 -1.88672,1.34766 -1.75195,8.2207 -3.9082,14.41992 -0.94336,4.17773 -4.7168,6.73828 -3.63867,3.63867 -19.54101,2.42578 -8.89453,-1.21289 -11.45508,-6.06445 -3.63867,-9.29883 -0.26953,-51.61524 0.94336,-14.285153 2.83008,-20.349606 1.61718,-4.177735 -10.10743,-10.916016 -2.56054,-1.751953 -5.39062,-0.269531 -1.75195,0.943359 1.34765,5.121094 3.77344,5.390625 3.90821,19.001953 0,10.916016 -1.07813,32.478516 -2.02148,27.08789 4.58203,34.76953 5.25586,5.25586 15.76758,6.87305 6.06446,0.53906 14.55469,0.53906 10.64648,-0.13477 18.46289,-3.50391 5.39063,-1.61718 3.50391,-5.66015 z"
       id="text36"
       style="font-weight:500;font-size:138px;font-family:'AR PL KaitiM GB', KaiTi, STKaiti, serif;fill:#4b535e"
       aria-label="儿" />
    <path
       d="M511 63 C515 43 525 28 542 16"
       fill="none"
       stroke="url(#brandGreen)"
       stroke-width="7"
       stroke-linecap="round"
       id="path36" />
    <path
       d="M542 16 C557 2 579 2 596 12 C584 34 565 43 545 37 C539 35 537 27 542 16 Z"
       fill="url(#brandGreen)"
       id="path37" />
    <path
       d="M515 48 C505 32 490 25 474 29 C476 47 487 57 504 57 C510 56 514 53 515 48 Z"
       fill="url(#brandGreen)"
       id="path38" />
  </g>
</svg>
