<svg xmlns="http://www.w3.org/2000/svg" viewBox="0 0 200 200" fill="none">  <circle cx="100" cy="100" r="95" fill="#667eea" opacity="0.1"/>  <g transform="translate(100,105)">    <path d="M0 30 C0 30 -5 15 0 0 C5 15 0 30 0 30Z" fill="#52c41a" opacity="0.6"/>    <path d="M0 15 C-15 5 -25 -10 -15 -20 C-5 -15 0 0 0 15Z" fill="#52c41a"/>    <path d="M0 10 C12 0 22 -12 14 -20 C6 -15 0 -2 0 10Z" fill="#73d13d"/>
  </g>  <g transform="translate(85,58)">
    <path d="M0 8 C-3 3 -8 0 -10 -3 C-14 -8 -10 -15 -5 -15 C-1 -15 0 -11 0 -11 C0 -11 1 -15 5 -15 C10 -15 14 -8 10 -3 C8 0 3 3 0 8Z" fill="#ff4d4f" opacity="0.8"/>
  </g>  <g transform="translate(130,50)">
    <polygon points="0,-12 3,-4 12,-4 5,2 7,10 0,6 -7,10 -5,2 -12,-4 -3,-4" fill="#faad14" opacity="0.9"/>
  </g>  <g transform="translate(60,45)">
    <polygon points="0,-7 2,-2.5 6,-2.5 3,0.5 4,5 0,2.5 -4,5 -3,0.5 -6,-2.5 -2,-2.5" fill="#faad14" opacity="0.6"/>
  </g>  <path d="M30 170 Q100 190 170 170" stroke="#667eea" stroke-width="2" fill="none" opacity="0.3"/>
</svg>
