<svg xmlns="http://www.w3.org/2000/svg" viewBox="0 0 100 100" fill="none">
  <circle cx="50" cy="50" r="45" fill="#667eea" opacity="0.15"/>
  <g transform="translate(50,52)">
    <path d="M0 15 C0 15 -3 8 0 0 C3 8 0 15 0 15Z" fill="#52c41a" opacity="0.6"/>
    <path d="M0 8 C-8 2 -13 -5 -8 -10 C-3 -7 0 0 0 8Z" fill="#52c41a"/>
    <path d="M0 6 C6 0 11 -6 7 -10 C3 -7 0 -1 0 6Z" fill="#73d13d"/>
  </g>
  <g transform="translate(43,30)">
    <path d="M0 4 C-2 1 -4 -1 -5 -2 C-7 -5 -5 -8 -2 -8 C0 -8 0 -6 0 -6 C0 -6 0 -8 2 -8 C5 -8 7 -5 5 -2 C4 -1 2 1 0 4Z" fill="#ff4d4f" opacity="0.8"/>
  </g>
</svg>
