<?xml version="1.0" encoding="UTF-8" standalone="no"?>
<svg
   viewBox="0 0 1400 420"
   role="img"
   aria-label="好芽儿 托育保育机构管理系统品牌标志"
   version="1.1"
   id="svg39"
   xmlns="http://www.w3.org/2000/svg"
   xmlns:svg="http://www.w3.org/2000/svg">
  <defs
     id="defs19">
    <linearGradient
       id="pink"
       x1="0"
       y1="0"
       x2="1"
       y2="1">
      <stop
         offset="0"
         stop-color="#ff9bb3"
         id="stop1" />
      <stop
         offset="1"
         stop-color="#ef7f9b"
         id="stop2" />
    </linearGradient>
    <linearGradient
       id="blue"
       x1="0"
       y1="0"
       x2="1"
       y2="1">
      <stop
         offset="0"
         stop-color="#87c9f3"
         id="stop3" />
      <stop
         offset="1"
         stop-color="#57a8df"
         id="stop4" />
    </linearGradient>
    <linearGradient
       id="green"
       x1="0"
       y1="0"
       x2="1"
       y2="1">
      <stop
         offset="0"
         stop-color="#7dd28b"
         id="stop5" />
      <stop
         offset="1"
         stop-color="#4fc49c"
         id="stop6" />
    </linearGradient>
    <radialGradient
       id="skin"
       cx="48%"
       cy="36%"
       r="70%">
      <stop
         offset="0"
         stop-color="#fff0e5"
         id="stop7" />
      <stop
         offset="1"
         stop-color="#ffd2b4"
         id="stop8" />
    </radialGradient>
    <linearGradient
       id="hair"
       x1="0"
       y1="0"
       x2="1"
       y2="1">
      <stop
         offset="0"
         stop-color="#d39567"
         id="stop9" />
      <stop
         offset="1"
         stop-color="#a9663f"
         id="stop10" />
    </linearGradient>
    <linearGradient
       id="yellow"
       x1="0"
       y1="0"
       x2="0"
       y2="1">
      <stop
         offset="0"
         stop-color="#ffd872"
         id="stop11" />
      <stop
         offset="1"
         stop-color="#f8c443"
         id="stop12" />
    </linearGradient>
    <linearGradient
       id="mouth"
       x1="0"
       y1="0"
       x2="0"
       y2="1">
      <stop
         offset="0"
         stop-color="#ff93a7"
         id="stop13" />
      <stop
         offset="1"
         stop-color="#ef6e87"
         id="stop14" />
    </linearGradient>
    <linearGradient
       id="brandGreen"
       x1="0"
       y1="0"
       x2="1"
       y2="1">
      <stop
         offset="0"
         stop-color="#78D08C"
         id="stop15" />
      <stop
         offset="1"
         stop-color="#45B987"
         id="stop16" />
    </linearGradient>
    <linearGradient
       id="brandAccent"
       x1="0"
       y1="0"
       x2="1"
       y2="0">
      <stop
         offset="0"
         stop-color="#F78FA7"
         id="stop17" />
      <stop
         offset="0.5"
         stop-color="#65C98A"
         id="stop18" />
      <stop
         offset="1"
         stop-color="#67B6EA"
         id="stop19" />
    </linearGradient>
  </defs>
  <g
     transform="translate(28 28) scale(0.315)"
     id="g34">
    <!-- upper apple-heart arcs -->
    <path
       d="M501 337 C454 274 393 250 326 267 C238 289 191 367 202 454 C205 481 214 507 229 529 C233 536 241 533 239 525 C224 454 245 389 300 350 C353 312 430 314 493 348 C505 354 510 348 501 337 Z"
       fill="url(#pink)"
       id="path19" />
    <path
       d="M523 337 C570 274 631 250 698 267 C786 289 833 367 822 454 C819 481 810 507 795 529 C791 536 783 533 785 525 C800 454 779 389 724 350 C671 312 594 314 531 348 C519 354 514 348 523 337 Z"
       fill="url(#blue)"
       id="path20" />
    <!-- hands / lower heart -->
    <path
       d="M219 516 C198 505 184 521 188 548 C208 679 303 789 477 837 C491 841 501 837 501 823 C500 752 478 697 437 656 C405 624 353 580 316 567 C297 560 283 574 292 592 C307 622 331 649 364 671 C371 676 374 686 367 691 C361 695 354 692 348 688 C304 658 267 619 245 574 C240 564 226 526 219 516 Z"
       fill="url(#pink)"
       id="path21" />
    <path
       d="M805 516 C826 505 840 521 836 548 C816 679 721 789 547 837 C533 841 523 837 523 823 C524 752 546 697 587 656 C619 624 671 580 708 567 C727 560 741 574 732 592 C717 622 693 649 660 671 C653 676 650 686 657 691 C663 695 670 692 676 688 C720 658 757 619 779 574 C784 564 798 526 805 516 Z"
       fill="url(#blue)"
       id="path22" />
    <!-- leaves and stem -->
    <path
       d="M512 337 C510 295 516 252 543 218"
       fill="none"
       stroke="url(#green)"
       stroke-width="12"
       stroke-linecap="round"
       id="path23" />
    <path
       d="M511 337 C510 296 501 257 478 234"
       fill="none"
       stroke="url(#green)"
       stroke-width="10"
       stroke-linecap="round"
       id="path24" />
    <path
       d="M543 218 C562 162 617 127 675 134 C681 135 684 140 683 147 C677 210 638 250 571 251 C557 251 548 246 543 238 C540 233 540 226 543 218 Z"
       fill="url(#green)"
       id="path25" />
    <path
       d="M548 229 C577 190 611 167 649 152"
       fill="none"
       stroke="#ecfff5"
       stroke-width="7"
       stroke-linecap="round"
       opacity=".9"
       id="path26" />
    <path
       d="M478 234 C456 193 420 174 381 181 C376 182 373 186 374 191 C380 230 408 252 450 250 C463 249 473 244 478 234 Z"
       fill="url(#green)"
       id="path27" />
    <!-- yellow wrap/body -->
    <path
       d="M402 615 C441 592 474 582 512 582 C550 582 583 592 622 615 C590 635 557 666 537 710 C525 736 517 762 512 783 C507 762 499 736 487 710 C467 666 434 635 402 615 Z"
       fill="url(#yellow)"
       id="path28" />
    <!-- ears -->
    <ellipse
       cx="363"
       cy="535"
       rx="30"
       ry="37"
       fill="#ffc9a5"
       id="ellipse28" />
    <ellipse
       cx="661"
       cy="535"
       rx="30"
       ry="37"
       fill="#ffc9a5"
       id="ellipse29" />
    <!-- face -->
    <ellipse
       cx="512"
       cy="515"
       rx="143"
       ry="142"
       fill="url(#skin)"
       id="ellipse30" />
    <!-- hair -->
    <path
       d="M370 507 C365 423 423 359 510 359 C594 359 656 420 655 500 C648 449 625 408 588 385 C596 407 608 420 626 428 C607 442 574 436 552 413 C557 431 570 445 586 452 C557 465 518 448 493 416 C495 439 510 457 530 469 C502 482 459 460 437 428 C409 447 385 473 370 507 Z"
       fill="url(#hair)"
       id="path30" />
    <!-- eyes -->
    <path
       d="M430 520 C438 505 454 504 464 517"
       fill="none"
       stroke="#7a4a2c"
       stroke-width="9"
       stroke-linecap="round"
       id="path31" />
    <path
       d="M560 517 C570 504 586 505 594 520"
       fill="none"
       stroke="#7a4a2c"
       stroke-width="9"
       stroke-linecap="round"
       id="path32" />
    <!-- cheeks -->
    <ellipse
       cx="405"
       cy="555"
       rx="25"
       ry="22"
       fill="#f8a6a8"
       opacity=".8"
       id="ellipse32" />
    <ellipse
       cx="619"
       cy="555"
       rx="25"
       ry="22"
       fill="#f8a6a8"
       opacity=".8"
       id="ellipse33" />
    <!-- mouth -->
    <path
       d="M477 541 C489 538 501 537 512 537 C523 537 535 538 547 541 C547 566 533 579 512 579 C491 579 477 566 477 541 Z"
       fill="url(#mouth)"
       id="path33" />
    <!-- heart on bib -->
    <path
       d="M512 700 C505 690 487 689 481 702 C474 717 492 730 512 745 C532 730 550 717 543 702 C537 689 519 690 512 700 Z"
       fill="#fff"
       id="path34" />
  </g>
  <g
     id="g39">
    <path
       d="m 439.38281,184.86328 q -1.17578,1.17578 -2.18359,2.6875 -5.20703,6.21484 -14.27735,12.42969 -2.18359,1.51172 -5.20703,3.1914 -2.6875,1.67969 -5.375,3.35938 -2.18359,1.51172 -0.33593,2.01562 13.60546,1.00782 32.92187,-17.97265 0.16797,-0.16797 0.50391,-0.50391 5.20703,4.53516 11.58984,11.42188 2.6875,2.51953 4.19922,2.6875 1.51172,0 2.51953,-1.67969 1.17578,-1.67969 0.50391,-7.05469 -1.17578,-6.04687 -13.60547,-12.93359 7.55859,-12.59766 10.07812,-23.17969 4.70313,-17.30078 7.05469,-20.99609 1.67969,-2.6875 -0.83984,-4.53516 -7.05469,-6.55078 -11.92578,-5.375 -2.1836,0.67188 -1.51172,3.19141 1.51172,3.1914 1.51172,7.22265 -7.72657,1.00782 -15.78907,2.51953 4.03125,-12.76562 7.39063,-25.53124 1.67969,-7.72657 4.87109,-11.92579 2.1836,-3.69531 1.17578,-5.878903 -2.18359,-3.191406 -10.07812,-7.894531 -3.19141,-2.183594 -6.21485,-0.671875 -2.18359,1.175781 -0.5039,3.863281 5.03906,7.558598 -4.36719,49.046878 -10.75,1.17578 -22.17187,3.02343 -3.52735,0.50391 -9.07032,-0.5039 -2.18359,0 -2.6875,1.51172 -0.67187,2.01562 0.67188,3.52734 3.1914,3.19141 7.89453,6.88672 1.67969,0.67187 3.69531,-0.33594 12.09375,-5.71094 19.82031,-6.71875 -3.02343,11.58985 -6.88671,17.80469 -1.67969,3.69531 1.84765,6.71875 8.0625,4.70312 14.78125,10.58203 z m 14.78125,-37.28906 q -1.17578,13.26953 -10.58203,31.07422 -4.53516,-2.6875 -10.24609,-5.71094 -3.52735,-1.67969 -3.02344,-5.20703 3.52734,-9.74219 6.88672,-19.82031 6.55078,-1.67969 13.60547,-3.52735 1.67968,-0.67187 3.86328,-1.17578 -0.16797,2.01563 -0.50391,4.36719 z m 57.78125,10.75 q 9.57422,-1.00781 37.1211,-1.00781 3.1914,-0.16797 4.03125,-1.51172 1.00781,-1.67969 -1.84766,-4.03125 -8.56641,-6.21485 -18.8125,-4.03125 -9.23828,1.51172 -22.00391,4.03125 -2.51953,-11.25391 -7.72656,-15.28516 19.65234,-19.14844 25.36328,-21.33203 3.52735,-1.17578 2.1836,-4.03125 -0.67188,-2.6875 -12.59766,-8.90234 -3.52734,-1.67969 -7.39063,0 -9.23828,3.69531 -23.68359,8.23047 -3.69531,1.17578 -12.93359,1.17578 -4.19922,0 -2.6875,3.52734 1.51172,2.18359 4.87109,4.19922 5.54297,3.02344 11.25391,-0.67188 3.1914,-1.51171 18.98047,-8.23046 2.51953,-1.00782 4.70312,0.5039 2.18359,1.51172 1.17578,4.03125 -5.54297,9.07031 -11.92578,19.82031 -1.17578,-0.67187 -2.51953,-1.17578 -3.69531,-1.51172 -5.375,-0.33594 -2.18359,1.17579 0,3.52735 6.21484,4.70312 7.55859,12.59765 0.50391,1.67969 1.00782,3.86329 -16.29297,2.01562 -34.76954,4.70312 -3.52734,0.16797 -0.83984,3.02344 2.18359,2.18359 5.20703,3.02344 3.19141,1.00781 6.04688,0.16796 12.09375,-3.1914 25.86718,-4.70312 5.54297,30.23437 -1.67968,47.19922 -2.51953,4.53515 -8.56641,3.35937 -5.20703,-1.00781 -9.91016,-1.84765 -2.01562,-0.50391 -1.00781,1.51172 0.67188,1.17578 3.69531,3.35937 6.71875,5.71094 9.07032,10.07813 1.67968,3.1914 4.53515,2.6875 2.51953,-0.16797 7.05469,-4.70313 14.78125,-15.11719 6.55078,-62.82031 z"
       id="text34"
       style="font-weight:500;font-size:172px;font-family:'AR PL KaitiM GB', KaiTi, STKaiti, serif;fill:#4b535e"
       aria-label="好" />
    <path
       d="m 672.49219,107.42969 q 15.78906,-1.17578 32.7539,-0.16797 2.6875,0.16797 3.52735,-1.34375 1.00781,-2.01563 -1.34375,-4.53516 -8.23047,-7.558591 -22.33985,-3.69531 -4.53515,0.503906 -8.73437,1.511719 0,-0.167969 0.16797,-0.167969 1.67968,-3.695313 4.87109,-8.734375 2.51953,-2.183594 0.83984,-4.199219 -2.01562,-2.6875 -7.55859,-6.046875 -2.6875,-1.679687 -5.71094,-0.335937 -1.67968,1.007812 -0.5039,2.855468 1.51172,4.535157 -1.84766,18.140628 -14.10937,1.67969 -29.73047,3.86328 -0.5039,-5.207033 -0.5039,-9.57422 0.16796,-3.191406 -3.19141,-4.199219 -6.21484,-3.527344 -10.24609,-2.015625 -3.19141,1.511719 -0.50391,4.703125 4.53516,5.039063 6.38281,11.925779 -13.60547,1.17578 -27.88281,2.6875 -5.03906,0.50391 -1.51172,3.19141 8.56641,5.03906 18.64453,2.6875 6.04688,-1.51172 12.09375,-2.51953 1.51172,7.72656 4.19922,10.41406 2.18359,1.67969 3.02344,-0.16797 0.67187,-2.51953 -0.16797,-11.2539 5.20703,-1.67969 27.37891,-2.6875 -3.69532,9.57421 -3.35938,12.76562 0.16797,2.51953 2.85547,0.67188 2.01562,-1.51172 8.39844,-13.77344 z M 647.96875,164.875 q -9.07031,23.17969 -54.58984,51.0625 -3.19141,2.01562 -0.33594,2.51953 6.04687,0.50391 22.67578,-8.39844 12.59766,-8.0625 24.69141,-20.66015 2.01562,-2.51953 13.9414,-17.97266 0,16.79688 0,41.32031 0,6.21485 -1.84765,8.73438 -2.1836,1.17578 -7.39063,0 -4.19922,-0.67188 -9.23828,-1.67969 -2.01563,-0.16797 -1.84766,0.83984 0.16797,1.17579 2.01563,2.6875 11.75781,7.72657 19.14844,14.10938 2.18359,1.51172 4.36718,-1.34375 6.21485,-10.07813 5.20703,-22.17188 -1.51171,-34.76953 -1.17578,-51.23046 16.29297,-1.67969 36.78516,-0.50391 4.19922,0.67187 5.87891,-0.50391 1.17578,-1.17578 0.16796,-3.35937 -1.17578,-2.1836 -8.0625,-6.21485 -4.03125,-2.18359 -17.30078,0.50391 -4.19922,0.16797 -17.13281,2.35156 0,-6.21484 0.83984,-12.09375 1.00782,-4.53515 0,-6.21484 -0.16796,-0.50391 -0.83984,-0.67188 22.17188,-4.03125 23.17969,-4.87109 1.67969,-1.17578 0.83984,-2.51953 -1.00781,-2.01562 -5.71094,-3.52734 -4.70312,-1.17578 -9.74218,0.5039 -8.73438,2.51953 -17.80469,4.70313 -2.01563,-0.16797 -2.51953,0.33593 -10.2461,1.51172 -21.83594,2.1836 -6.04687,0.67187 -1.84766,3.69531 6.04688,3.69531 21.5,1.51172 1.51172,-0.16797 3.19141,-0.33594 1.00781,3.02344 1.17578,18.98047 -14.78125,2.18359 -29.22656,6.21484 -2.6875,1.17579 -3.35938,0.16797 -0.67187,-0.67187 -0.16796,-2.35156 2.6875,-10.24609 4.03125,-12.93359 1.51171,-2.51953 -0.50391,-4.53516 -3.02344,-4.19922 -7.89453,-6.55078 -2.1836,-1.00781 -3.86328,0.16797 -1.00782,1.00781 0.33593,3.86328 2.51954,5.03906 1.51172,11.75781 -2.18359,8.23047 -6.04687,11.58985 -2.1836,2.51953 -1.51172,4.53515 1.17578,3.69531 4.19922,6.71875 2.01562,2.01563 5.20703,-0.16797 10.24609,-7.05468 30.90625,-10.24609 z"
       id="text35"
       style="font-weight:500;font-size:172px;font-family:'AR PL KaitiM GB', KaiTi, STKaiti, serif;fill:url(#brandGreen)"
       aria-label="芽" />
    <path
       d="m 794.07031,117.00391 q 5.03906,10.07812 0.16797,47.03125 -2.01562,9.57421 -7.05469,20.99609 -5.54297,11.58984 -20.66015,25.53125 -2.6875,2.18359 -3.52735,3.52734 -0.5039,1.51172 1.84766,1.51172 7.05469,0 20.49219,-12.59765 16.125,-16.62891 21.5,-53.91797 1.51172,-13.10157 3.1914,-26.20313 1.17578,-4.19922 -2.6875,-6.21484 -9.23828,-5.03906 -12.42968,-4.70313 -3.69532,0.67188 -0.83985,5.03907 z m 112.3711,92.88671 q -4.19922,-10.07812 -6.71875,-27.3789 -0.50391,-3.02344 -1.51172,-4.19922 -1.67969,-1.17578 -2.35157,1.67969 -2.18359,10.24609 -4.87109,17.97265 -1.17578,5.20703 -5.87891,8.39844 -4.53515,4.53516 -24.35546,3.02344 -11.08594,-1.51172 -14.27735,-7.5586 -4.53515,-11.58984 -0.33594,-64.33203 1.17579,-17.80468 3.52735,-25.36328 2.01562,-5.20703 -12.59766,-13.605466 -3.1914,-2.183594 -6.71875,-0.335938 -2.18359,1.175781 1.67969,6.382814 4.70312,6.71875 4.87109,23.68359 0,13.60547 -1.34375,40.48047 -2.51953,33.76172 5.71094,43.33594 6.55078,6.55078 19.65234,8.5664 7.5586,0.67188 18.14063,0.67188 13.26953,-0.16797 23.01172,-4.36719 6.71875,-2.01562 4.36719,-7.05469 z"
       id="text36"
       style="font-weight:500;font-size:172px;font-family:'AR PL KaitiM GB', KaiTi, STKaiti, serif;fill:#4b535e"
       aria-label="儿" />
    <!-- small custom sprout, visually integrated with 芽 -->
    <path
       d="M657 84 C661 58 674 39 694 24"
       fill="none"
       stroke="url(#brandGreen)"
       stroke-width="8"
       stroke-linecap="round"
       id="path36" />
    <path
       d="M694 24 C711 6 739 3 761 15 C747 42 722 53 697 45 C690 43 687 35 694 24 Z"
       fill="url(#brandGreen)"
       id="path37" />
    <path
       d="M660 62 C648 42 629 34 610 39 C612 61 626 74 647 73 C655 72 660 68 660 62 Z"
       fill="url(#brandGreen)"
       id="path38" />
    <path
       d="M392 282 C506 299 679 302 854 279"
       fill="none"
       stroke="url(#brandAccent)"
       stroke-width="5"
       stroke-linecap="round"
       opacity="0.7"
       id="path39" />
    <path
       d="m 409.162,330.104 0.456,2.698 7.6,-1.178 v 11.058 c 0,3.61 0.874,4.636 4.066,4.636 0.646,0 4.446,0 5.13,0 3.04,0 3.762,-1.862 4.066,-7.562 -0.798,-0.19 -1.938,-0.722 -2.622,-1.254 -0.152,4.902 -0.342,6.118 -1.634,6.118 -0.798,0 -3.952,0 -4.56,0 -1.368,0 -1.596,-0.304 -1.596,-1.938 v -11.476 l 10.222,-1.558 -0.456,-2.622 -9.766,1.444 v -10.26 c 2.85,-0.722 5.548,-1.52 7.676,-2.432 l -2.432,-2.166 c -3.61,1.672 -10.222,3.23 -15.998,4.18 0.342,0.646 0.76,1.672 0.912,2.318 2.242,-0.342 4.636,-0.76 6.992,-1.254 v 10.032 z m -8.284,-17.024 v 7.676 h -5.168 v 2.66 h 5.168 v 8.322 c -2.09,0.57 -4.028,1.064 -5.586,1.444 l 0.836,2.774 4.75,-1.368 v 9.842 c 0,0.532 -0.228,0.684 -0.722,0.722 -0.494,0 -2.166,0.038 -3.952,-0.038 0.38,0.722 0.76,1.9 0.874,2.622 2.622,0 4.18,-0.038 5.206,-0.494 0.988,-0.456 1.368,-1.216 1.368,-2.812 v -10.678 l 5.054,-1.52 -0.38,-2.622 -4.674,1.33 v -7.524 h 4.826 v -2.66 h -4.826 v -7.676 z m 67.976,18.202 v 2.964 h -17.442 v -2.964 z m -20.292,-2.394 v 19.19 h 2.85 v -6.612 h 17.442 v 3.344 c 0,0.646 -0.228,0.874 -1.026,0.874 -0.722,0.076 -3.572,0.076 -6.384,-0.038 0.38,0.684 0.836,1.71 0.988,2.394 3.724,0 6.08,0 7.448,-0.38 1.368,-0.38 1.824,-1.14 1.824,-2.812 v -15.96 z m 2.85,7.486 h 17.442 v 3.002 h -17.442 z m 5.966,-22.762 c 0.608,0.988 1.254,2.204 1.824,3.268 h -15.846 v 2.546 h 10.07 c -1.938,1.786 -3.876,3.23 -4.598,3.686 -0.988,0.684 -1.786,1.102 -2.508,1.216 0.304,0.798 0.798,2.28 0.95,2.926 1.254,-0.494 3.192,-0.57 22.61,-1.71 1.14,1.026 2.128,1.938 2.85,2.698 l 2.318,-1.71 c -1.976,-1.862 -5.662,-4.864 -8.55,-7.106 h 10.26 v -2.546 h -14.174 c -0.646,-1.216 -1.596,-2.85 -2.356,-4.066 z m 6.384,6.802 3.534,2.926 -15.428,0.722 c 1.938,-1.292 3.952,-2.926 5.814,-4.636 h 7.638 z m 41.414,-3.002 h 14.136 v 6.992 h -14.136 z m -2.736,-2.546 v 12.122 h 8.284 v 4.712 h -11.096 v 2.622 h 9.424 c -2.584,4.028 -6.612,7.866 -10.526,9.804 0.646,0.532 1.52,1.558 1.976,2.242 3.724,-2.166 7.562,-5.966 10.222,-10.184 v 11.856 h 2.85 v -11.97 c 2.546,4.18 6.194,8.17 9.69,10.374 0.494,-0.722 1.368,-1.71 2.014,-2.28 -3.686,-1.976 -7.562,-5.814 -9.994,-9.842 h 8.968 V 331.7 h -10.678 v -4.712 h 8.588 v -12.122 z m -3.914,-1.672 c -2.204,5.738 -5.852,11.4 -9.652,15.048 0.494,0.646 1.33,2.166 1.596,2.812 1.406,-1.406 2.774,-3.078 4.104,-4.902 v 21.774 h 2.736 v -25.992 c 1.482,-2.508 2.812,-5.206 3.876,-7.904 z m 64.328,18.088 v 2.964 h -17.442 v -2.964 z m -20.292,-2.394 v 19.19 h 2.85 v -6.612 h 17.442 v 3.344 c 0,0.646 -0.228,0.874 -1.026,0.874 -0.722,0.076 -3.572,0.076 -6.384,-0.038 0.38,0.684 0.836,1.71 0.988,2.394 3.724,0 6.08,0 7.448,-0.38 1.368,-0.38 1.824,-1.14 1.824,-2.812 v -15.96 z m 2.85,7.486 h 17.442 v 3.002 h -17.442 z m 5.966,-22.762 c 0.608,0.988 1.254,2.204 1.824,3.268 h -15.846 v 2.546 h 10.07 c -1.938,1.786 -3.876,3.23 -4.598,3.686 -0.988,0.684 -1.786,1.102 -2.508,1.216 0.304,0.798 0.798,2.28 0.95,2.926 1.254,-0.494 3.192,-0.57 22.61,-1.71 1.14,1.026 2.128,1.938 2.85,2.698 l 2.318,-1.71 c -1.976,-1.862 -5.662,-4.864 -8.55,-7.106 h 10.26 v -2.546 h -14.174 c -0.646,-1.216 -1.596,-2.85 -2.356,-4.066 z m 6.384,6.802 3.534,2.926 -15.428,0.722 c 1.938,-1.292 3.952,-2.926 5.814,-4.636 h 7.638 z m 43.162,-5.168 v 12.198 c 0,5.89 -0.532,13.452 -5.662,18.772 0.646,0.342 1.748,1.292 2.166,1.824 5.472,-5.624 6.27,-14.25 6.27,-20.596 v -9.5 h 7.144 v 24.472 c 0,3.268 0.228,3.952 0.874,4.522 0.57,0.494 1.406,0.722 2.166,0.722 0.494,0 1.368,0 1.938,0 0.798,0 1.482,-0.152 2.014,-0.532 0.57,-0.38 0.874,-1.026 1.064,-2.128 0.152,-0.95 0.304,-3.762 0.304,-5.928 -0.722,-0.228 -1.596,-0.684 -2.166,-1.216 -0.038,2.546 -0.076,4.56 -0.19,5.434 -0.038,0.874 -0.152,1.216 -0.38,1.444 -0.152,0.19 -0.456,0.266 -0.76,0.266 -0.38,0 -0.836,0 -1.102,0 -0.304,0 -0.494,-0.076 -0.684,-0.228 -0.19,-0.152 -0.266,-0.874 -0.266,-2.128 v -27.398 z m -10.64,-2.166 v 8.132 h -6.308 v 2.736 h 5.928 c -1.368,5.282 -4.142,11.21 -6.84,14.402 0.456,0.684 1.178,1.824 1.482,2.584 2.128,-2.622 4.18,-6.916 5.738,-11.362 v 18.43 h 2.774 V 330.56 c 1.482,1.9 3.268,4.256 4.028,5.548 l 1.786,-2.356 c -0.874,-0.988 -4.484,-5.054 -5.814,-6.384 v -3.42 h 5.624 v -2.736 h -5.624 v -8.132 z m 58.324,0 c -1.216,5.13 -3.306,10.184 -6.042,13.414 0.684,0.38 1.824,1.292 2.356,1.748 1.292,-1.71 2.546,-3.876 3.61,-6.27 h 13.224 c -0.494,15.58 -1.064,21.394 -2.204,22.724 -0.38,0.494 -0.76,0.608 -1.444,0.57 -0.798,0 -2.622,0 -4.636,-0.19 0.456,0.836 0.798,2.052 0.874,2.85 1.862,0.114 3.762,0.152 4.94,0 1.216,-0.152 2.052,-0.456 2.812,-1.52 1.406,-1.862 1.938,-7.752 2.508,-25.612 0,-0.38 0.038,-1.482 0.038,-1.482 h -15.01 c 0.684,-1.786 1.292,-3.686 1.786,-5.624 z m 4.408,17.632 c 0.646,1.368 1.33,2.964 1.9,4.484 l -6.726,1.178 c 1.71,-3.154 3.382,-7.144 4.598,-11.02 l -2.736,-0.798 c -1.026,4.37 -3.154,9.158 -3.8,10.374 -0.646,1.254 -1.178,2.166 -1.786,2.28 0.304,0.684 0.76,2.014 0.874,2.546 0.722,-0.418 1.9,-0.722 10.374,-2.432 0.342,1.026 0.608,1.976 0.798,2.736 l 2.28,-0.95 c -0.608,-2.318 -2.204,-6.232 -3.686,-9.158 z M 636.562,313.08 v 7.334 H 630.9 v 2.66 h 5.396 c -1.216,5.206 -3.61,11.248 -6.08,14.44 0.532,0.684 1.216,1.938 1.52,2.774 1.786,-2.546 3.534,-6.688 4.826,-10.982 v 18.696 h 2.736 v -19.646 c 1.102,1.938 2.318,4.256 2.888,5.51 l 1.786,-2.09 c -0.684,-1.14 -3.686,-5.738 -4.674,-6.916 v -1.786 h 4.408 v -2.66 h -4.408 v -7.334 z m 47.456,15.276 v 19.722 h 2.888 v -1.292 h 18.392 v 1.216 h 2.812 v -9.386 h -21.204 v -2.622 h 19.19 v -7.638 z m 21.28,16.188 h -18.392 v -3.686 h 18.392 z M 692.72,321.326 c 0.418,0.76 0.836,1.634 1.178,2.432 h -14.06 v 6.27 h 2.774 V 326 h 25.27 v 4.028 h 2.888 v -6.27 h -13.946 c -0.342,-0.95 -0.988,-2.09 -1.558,-2.964 z m -5.814,9.234 h 16.416 v 3.268 h -16.416 z m -4.56,-17.632 c -0.95,3.306 -2.622,6.536 -4.712,8.664 0.722,0.342 1.9,0.988 2.47,1.368 1.102,-1.254 2.128,-2.888 3.078,-4.674 h 2.622 c 0.836,1.406 1.672,3.116 2.014,4.218 l 2.432,-0.836 c -0.304,-0.912 -0.95,-2.204 -1.672,-3.382 h 5.814 v -2.09 h -10.26 c 0.38,-0.912 0.722,-1.824 0.988,-2.736 z m 16.074,0.076 c -0.684,2.774 -2.014,5.434 -3.724,7.258 0.684,0.342 1.862,0.95 2.356,1.33 0.798,-0.912 1.558,-2.014 2.204,-3.268 h 2.698 c 1.14,1.406 2.242,3.192 2.736,4.294 l 2.318,-1.026 c -0.418,-0.912 -1.216,-2.128 -2.09,-3.268 h 6.802 v -2.128 h -11.476 c 0.38,-0.874 0.684,-1.786 0.95,-2.698 z m 42.668,11.476 h 5.814 v 4.902 h -5.814 z m 8.284,0 h 5.814 v 4.902 h -5.814 z m -8.284,-7.144 h 5.814 v 4.826 h -5.814 z m 8.284,0 h 5.814 v 4.826 h -5.814 z m -14.288,26.828 v 2.622 h 24.662 v -2.622 H 749.6 v -5.244 h 8.854 v -2.584 H 749.6 v -4.484 h 8.322 v -17.024 h -19.456 v 17.024 h 8.208 v 4.484 h -8.664 v 2.584 h 8.664 v 5.244 z m -10.754,-2.964 0.722,2.888 c 3.344,-1.102 7.714,-2.584 11.818,-3.952 l -0.494,-2.774 -4.18,1.406 v -9.462 h 3.838 v -2.66 h -3.838 v -8.322 h 4.408 v -2.66 h -11.856 v 2.66 h 4.712 v 8.322 h -4.332 v 2.66 h 4.332 v 10.336 c -1.938,0.608 -3.686,1.14 -5.13,1.558 z m 56.538,-4.712 c -2.014,2.736 -5.168,5.548 -8.208,7.372 0.76,0.418 1.938,1.368 2.508,1.9 2.888,-2.052 6.27,-5.168 8.55,-8.246 z m 13.3,1.292 c 3.154,2.432 7.068,5.928 8.968,8.056 l 2.432,-1.71 c -2.052,-2.166 -5.966,-5.51 -9.158,-7.828 z m 1.064,-9.652 c 0.988,0.912 2.052,1.976 3.078,3.078 l -16.72,1.102 c 5.7,-2.812 11.514,-6.308 17.138,-10.564 l -2.204,-1.824 c -1.9,1.558 -3.99,3.04 -6.004,4.446 l -9.31,0.456 c 2.736,-1.938 5.51,-4.37 8.056,-7.03 4.94,-0.494 9.614,-1.178 13.224,-2.052 l -1.976,-2.394 c -6.156,1.558 -17.214,2.584 -26.448,3.04 0.304,0.646 0.646,1.786 0.722,2.47 3.344,-0.152 6.916,-0.38 10.45,-0.684 -2.47,2.584 -5.282,4.864 -6.27,5.51 -1.14,0.836 -2.052,1.406 -2.812,1.52 0.304,0.722 0.722,1.976 0.798,2.546 0.798,-0.304 1.976,-0.456 9.69,-0.912 -3.23,2.014 -6.004,3.534 -7.334,4.142 -2.356,1.178 -4.066,1.9 -5.282,2.052 0.342,0.76 0.76,2.09 0.874,2.66 1.064,-0.418 2.546,-0.608 12.996,-1.406 v 9.956 c 0,0.418 -0.114,0.57 -0.76,0.608 -0.608,0.038 -2.698,0.038 -4.978,-0.076 0.456,0.798 0.95,2.014 1.102,2.85 2.774,0 4.674,-0.038 5.928,-0.494 1.292,-0.456 1.596,-1.254 1.596,-2.85 v -10.222 l 9.462,-0.684 c 1.102,1.254 2.014,2.432 2.66,3.42 l 2.28,-1.368 c -1.558,-2.318 -4.826,-5.814 -7.752,-8.436 z m 48.292,3.496 v 12.008 c 0,2.812 0.646,3.648 3.306,3.648 0.532,0 2.812,0 3.344,0 2.356,0 3.04,-1.444 3.23,-6.612 -0.722,-0.19 -1.862,-0.646 -2.432,-1.178 -0.114,4.598 -0.266,5.282 -1.102,5.282 -0.456,0 -2.242,0 -2.584,0 -0.836,0 -0.95,-0.114 -0.95,-1.14 v -12.008 z m -7.144,0.076 c -0.228,7.524 -1.102,11.59 -7.334,13.908 0.646,0.532 1.444,1.596 1.786,2.318 6.878,-2.812 8.056,-7.714 8.36,-16.226 z m -17.784,11.286 0.646,2.812 c 3.42,-1.102 7.904,-2.508 12.16,-3.914 l -0.456,-2.47 c -4.598,1.368 -9.272,2.774 -12.35,3.572 z m 21.014,-29.298 c 0.722,1.558 1.672,3.61 2.052,4.902 h -9.196 v 2.584 h 6.84 c -1.71,2.356 -4.332,5.852 -5.206,6.688 -0.722,0.684 -1.672,0.95 -2.394,1.14 0.304,0.608 0.836,2.052 0.95,2.774 1.064,-0.456 2.66,-0.646 16.454,-1.938 0.608,1.026 1.178,2.014 1.558,2.774 l 2.394,-1.33 c -1.14,-2.204 -3.61,-5.776 -5.662,-8.436 l -2.242,1.14 c 0.836,1.102 1.71,2.356 2.508,3.61 l -10.45,0.874 c 1.71,-2.09 3.876,-5.054 5.472,-7.296 h 10.336 V 318.59 H 842.08 l 2.432,-0.76 c -0.456,-1.216 -1.406,-3.306 -2.28,-4.826 z m -20.33,15.238 c 0.57,-0.266 1.444,-0.456 6.004,-1.102 -1.634,2.394 -3.116,4.256 -3.8,4.978 -1.216,1.406 -2.09,2.356 -2.926,2.508 0.342,0.76 0.798,2.166 0.95,2.774 0.798,-0.494 2.09,-0.912 11.514,-2.964 -0.076,-0.608 -0.114,-1.71 -0.038,-2.508 l -7.182,1.406 c 2.888,-3.344 5.738,-7.41 8.132,-11.514 l -2.546,-1.52 c -0.722,1.406 -1.52,2.85 -2.394,4.18 l -4.674,0.494 c 2.356,-3.268 4.712,-7.41 6.46,-11.4 l -2.888,-1.33 c -1.672,4.598 -4.484,9.5 -5.396,10.754 -0.836,1.292 -1.558,2.166 -2.242,2.318 0.38,0.798 0.836,2.318 1.026,2.926 z"
       id="text39"
       style="font-size:38px;font-family:'Noto Sans CJK SC', 'Source Han Sans SC', sans-serif;letter-spacing:9;fill:#7e8794"
       aria-label="托育保育机构管理系统" />
  </g>
</svg>
